<svg xmlns="http://www.w3.org/2000/svg" width="24" height="24" viewBox="0 0 24 24" fill="none">
  <g clip-path="url(#clip0_180_239)">
    <path d="M9.91702 1.225C9.82462 1.0847 9.66797 1.00019 9.50002 1H0.500016C0.223875 1 9.85349e-09 1.22388 9.85349e-09 1.50002V22.5C-4.68651e-05 22.7377 0.167156 22.9425 0.399984 22.99C0.432891 22.9966 0.466406 23 0.499969 23C0.699422 23.0007 0.880172 22.8828 0.959953 22.7L9.95995 1.69998C10.027 1.54459 10.0108 1.36586 9.91702 1.225Z" fill="#F44336"/>
    <path d="M12.4628 8.812C12.3863 8.62352 12.2033 8.50014 11.9998 8.5C11.7986 8.49995 11.6169 8.62052 11.5388 8.806L7.53882 18.306C7.43166 18.5605 7.55114 18.8537 7.80563 18.9609C7.86708 18.9867 7.93313 19 7.99979 19H11.6528L13.0318 22.676C13.1051 22.8709 13.2916 23 13.4998 23H17.4998C17.7759 22.9998 17.9997 22.7759 17.9995 22.4997C17.9994 22.4354 17.987 22.3717 17.9628 22.312L12.4628 8.812Z" fill="#F44336"/>
    <path d="M23.4998 1H14.4998C14.2237 0.999019 13.999 1.2221 13.998 1.49824C13.9978 1.56766 14.012 1.63638 14.0398 1.69999L23.0398 22.7C23.1195 22.8828 23.3003 23.0007 23.4998 23C23.5333 22.9999 23.5668 22.9966 23.5997 22.99C23.8326 22.9425 23.9998 22.7376 23.9997 22.5V1.50002C23.9998 1.22388 23.7759 1 23.4998 1Z" fill="#F44336"/>
  </g>
  <defs>
    <clipPath id="clip0_180_239">
      <rect width="24" height="24" fill="white"/>
    </clipPath>
  </defs>
</svg>