<?xml version="1.0" encoding="UTF-8"?>
<!DOCTYPE svg PUBLIC "-//W3C//DTD SVG 1.1//EN" "http://www.w3.org/Graphics/SVG/1.1/DTD/svg11.dtd">
<!-- Creator: CorelDRAW X7 -->
<svg xmlns="http://www.w3.org/2000/svg" xml:space="preserve" width="3.59999in" height="3.59999in" version="1.1" style="shape-rendering:geometricPrecision; text-rendering:geometricPrecision; image-rendering:optimizeQuality; fill-rule:evenodd; clip-rule:evenodd"
viewBox="0 0 3600 3600"
 xmlns:xlink="http://www.w3.org/1999/xlink"
 xmlns:svg="http://www.w3.org/2000/svg">
 <defs>
  <style type="text/css">
   <![CDATA[
    .fil0 {fill:none}
    .fil1 {fill:black}
    .fil2 {fill:#FF642D}
   ]]>
  </style>
 </defs>
 <g id="Layer_x0020_1">
  <metadata id="CorelCorpID_0Corel-Layer"/>
  <rect class="fil0" width="3600" height="3600"/>
  <g id="_2313675164000">
   <path class="fil1" d="M2349 1759c0,-48 -29,-82 -84,-82l-180 0 0 246 59 0 0 -85 69 0 68 85 67 0 0 -6 -67 -80c43,-9 68,-40 68,-78zm-91 29l-114 0 0 -60 114 0c20,0 34,11 34,31 1,19 -12,29 -34,29z"/>
   <polygon class="fil1" points="3242,1676 3187,1676 3187,1769 3038,1769 3038,1676 2979,1676 2979,1921 3038,1921 3038,1825 3187,1825 3187,1921 3242,1921 "/>
   <polygon class="fil1" points="1926,1676 1861,1881 1858,1881 1792,1676 1687,1676 1687,1921 1743,1921 1743,1720 1746,1720 1811,1921 1901,1921 1968,1720 1971,1720 1971,1921 2028,1921 2028,1676 "/>
   <path class="fil1" d="M1283 1776c-20,-1 -59,-6 -81,-7 -21,-2 -33,-9 -33,-22 0,-14 14,-24 64,-24 44,0 86,10 123,27l0 -55c-36,-18 -76,-25 -126,-25 -69,0 -118,29 -118,78 0,42 28,65 86,71 20,3 56,6 79,8 27,1 34,10 34,22 0,16 -19,26 -65,26 -47,0 -96,-16 -131,-37l0 57c28,19 75,34 130,34 75,0 124,-30 124,-82 0,-40 -25,-65 -86,-71z"/>
   <polygon class="fil1" points="1409,1676 1409,1921 1637,1921 1637,1871 1465,1871 1465,1821 1634,1821 1634,1770 1465,1770 1465,1726 1637,1726 1637,1676 "/>
   <path class="fil1" d="M2856 1776c-20,-1 -59,-6 -81,-7 -21,-2 -33,-9 -33,-22 0,-14 14,-24 64,-24 44,0 86,9 123,27l0 -55c-36,-18 -76,-25 -126,-25 -69,0 -118,29 -118,78 0,42 28,65 86,71 20,3 56,6 79,8 27,1 34,10 34,22 0,16 -19,26 -65,26 -47,0 -96,-16 -131,-37l0 57c28,19 75,34 130,34 75,0 124,-30 124,-82 0,-40 -27,-65 -86,-71z"/>
   <path class="fil1" d="M2586 1676l0 125c0,48 -30,74 -73,74 -44,0 -72,-25 -72,-74l0 -125 -59 0 0 120c0,88 56,133 131,133 74,0 130,-43 130,-130l0 -123 -57 0z"/>
   <path class="fil2" d="M911 1797c0,12 -6,13 -21,13 -16,0 -19,-3 -21,-14 -3,-31 -23,-58 -59,-60 -10,-1 -13,-4 -13,-19 0,-13 1,-19 12,-19 59,1 102,50 102,99zm87 0c0,-92 -62,-189 -207,-189l-285 0c-6,0 -11,3 -11,9 0,3 2,6 5,7 10,9 25,18 46,28 19,11 35,16 50,22 6,3 9,6 9,9 0,5 -3,9 -11,9l-226 0c-7,-1 -10,3 -10,7 0,5 1,8 4,11 18,19 48,43 90,69 37,24 85,49 122,67 6,3 9,6 9,10 0,5 -3,8 -11,8l-105 0c-6,0 -9,3 -9,7 0,3 2,6 5,9 23,22 62,44 112,66 68,28 136,46 213,46 146,0 210,-109 210,-195zm-191 132c-71,0 -131,-58 -131,-132 0,-71 59,-129 131,-129 74,0 132,58 132,129 0,72 -58,132 -132,132z"/>
  </g>
 </g>
</svg>
