<svg xmlns="http://www.w3.org/2000/svg" width="40" height="24" viewBox="0 0 40 24" fill="none">
  <g clip-path="url(#clip0_180_509)">
    <path d="M3.71391 0H36.2699C38.3303 0 39.9981 1.67451 39.9981 3.74322V16.2202C39.9981 18.2889 38.3303 19.9634 36.2699 19.9634H24.5949L26.1974 23.9035L19.1498 19.9634H3.73016C1.66988 19.9634 0.00207313 18.2889 0.00207313 16.2202V3.74322C-0.0143316 1.69098 1.65332 0 3.71391 0Z" fill="#9B5C8F"/>
    <path d="M2.27933 3.41186C2.50696 3.10158 2.84834 2.93844 3.30361 2.90582C4.13291 2.84041 4.60442 3.23209 4.71816 4.08103C5.22218 7.4928 5.77494 10.3822 6.3602 12.7491L9.9208 5.94205C10.2461 5.32166 10.6526 4.99523 11.1404 4.9626C11.8558 4.91366 12.2946 5.3706 12.4735 6.33374C12.8801 8.50472 13.4003 10.3494 14.0181 11.9165C14.4408 7.77029 15.1562 4.78299 16.1643 2.93844C16.408 2.48135 16.7658 2.2528 17.2373 2.22001C17.6113 2.18754 17.9527 2.30174 18.2616 2.5466C18.5705 2.79146 18.7331 3.10158 18.7656 3.47711C18.7818 3.77091 18.7331 4.01578 18.6031 4.26064C17.9689 5.43601 17.4485 7.41123 17.0259 10.1535C16.6195 12.8144 16.4732 14.8876 16.5706 16.3731C16.6033 16.781 16.5381 17.1402 16.3757 17.4504C16.1804 17.8095 15.8879 18.0054 15.5139 18.0381C15.0911 18.0707 14.6522 17.8749 14.2295 17.4341C12.7174 15.8832 11.5142 13.5653 10.6364 10.4801C9.57942 12.5695 8.79903 14.1366 8.29501 15.1813C7.33573 17.026 6.52284 17.9728 5.83993 18.0217C5.40091 18.0544 5.02704 17.6788 4.70191 16.8955C3.87277 14.757 2.97848 10.6269 2.01935 4.5055C1.9542 4.08103 2.05169 3.7055 2.27933 3.41186ZM37.2192 5.97468C36.6339 4.94629 35.7721 4.32605 34.6178 4.08103C34.3088 4.01578 34.0163 3.98315 33.7398 3.98315C32.179 3.98315 30.9109 4.79931 29.9191 6.43178C29.0735 7.81923 28.6509 9.35366 28.6509 11.0351C28.6509 12.292 28.911 13.3693 29.4313 14.2672C30.0166 15.2956 30.8784 15.9159 32.0326 16.1607C32.3415 16.2261 32.6341 16.2588 32.9107 16.2588C34.4877 16.2588 35.7559 15.4426 36.7314 13.8101C37.5768 12.4062 37.9996 10.8718 37.9996 9.19052C38.0158 7.91727 37.7394 6.85609 37.2192 5.97468ZM35.1706 10.4964C34.943 11.5737 34.5364 12.3736 33.9348 12.9122C33.4634 13.3367 33.0244 13.5162 32.618 13.4346C32.2278 13.353 31.9025 13.0103 31.6587 12.3736C31.4635 11.8675 31.3661 11.3615 31.3661 10.8881C31.3661 10.4801 31.3986 10.0719 31.4799 9.69656C31.6263 9.02723 31.9026 8.37421 32.3415 7.75397C32.8782 6.95397 33.4472 6.6277 34.0324 6.74189C34.4227 6.82346 34.748 7.16637 34.9917 7.80291C35.1869 8.30895 35.2843 8.81499 35.2843 9.2884C35.2843 9.71288 35.2519 10.121 35.1706 10.4964ZM27.0412 5.97468C26.456 4.94629 25.5779 4.32605 24.4399 4.08103C24.131 4.01578 23.8384 3.98315 23.5619 3.98315C22.0011 3.98315 20.7329 4.79931 19.7411 6.43178C18.8957 7.81923 18.473 9.35366 18.473 11.0351C18.473 12.292 18.7331 13.3693 19.2534 14.2672C19.8386 15.2956 20.7004 15.9159 21.8547 16.1607C22.1637 16.2261 22.4562 16.2588 22.7327 16.2588C24.3098 16.2588 25.5779 15.4426 26.5535 13.8101C27.399 12.4062 27.8216 10.8718 27.8216 9.19052C27.8216 7.91727 27.5615 6.85609 27.0412 5.97468ZM24.9764 10.4964C24.7488 11.5737 24.3423 12.3736 23.7407 12.9122C23.2692 13.3367 22.8302 13.5162 22.4237 13.4346C22.0336 13.353 21.7084 13.0103 21.4644 12.3736C21.2694 11.8675 21.1719 11.3615 21.1719 10.8881C21.1719 10.4801 21.2044 10.0719 21.2857 9.69656C21.4321 9.02723 21.7084 8.37421 22.1475 7.75397C22.684 6.95397 23.253 6.6277 23.8382 6.74189C24.2285 6.82346 24.5538 7.16637 24.7975 7.80291C24.9928 8.30895 25.0901 8.81499 25.0901 9.2884C25.1066 9.71288 25.0577 10.121 24.9764 10.4964Z" fill="white"/>
  </g>
  <defs>
    <clipPath id="clip0_180_509">
      <rect width="40" height="24" fill="white"/>
    </clipPath>
  </defs>
</svg>